<mxfile host="app.diagrams.net" modified="2023-11-09T05:37:49.287Z" agent="Mozilla/5.0 (Windows NT 10.0; Win64; x64) AppleWebKit/537.36 (KHTML, like Gecko) Chrome/119.0.0.0 Safari/537.36" version="21.7.5" etag="qofwezTS6P9Tt4xaxvDV" type="github">
  <diagram name="페이지-1" id="q60xEMp_K34nNa5a6Dog">
    <mxGraphModel>
      <root>
        <mxCell id="0" />
        <mxCell id="1" parent="0" />
      </root>
    </mxGraphModel>
  </diagram>
</mxfile>
